<svg width="234" height="69" viewBox="0 0 234 69" fill="none" xmlns="http://www.w3.org/2000/svg">
<path d="M53.632 52C53.152 52 52.912 51.824 52.912 51.472C52.912 51.184 53.12 50.992 53.536 50.896L54.64 50.704C55.312 50.576 55.744 50.4 55.936 50.176C56.16 49.952 56.272 49.504 56.272 48.832V20.608C56.272 19.936 56.16 19.488 55.936 19.264C55.744 19.04 55.312 18.864 54.64 18.736L53.536 18.544C53.12 18.448 52.912 18.256 52.912 17.968C52.912 17.616 53.152 17.44 53.632 17.44H63.664C65.552 17.44 67.216 17.856 68.656 18.688C70.096 19.488 71.216 20.608 72.016 22.048C72.816 23.488 73.216 25.152 73.216 27.04C73.216 28.864 72.816 30.48 72.016 31.888C71.216 33.296 70.112 34.4 68.704 35.2C67.296 35.968 65.664 36.352 63.808 36.352H60.352C59.904 36.352 59.68 36.576 59.68 37.024V48.64C59.68 49.312 59.808 49.776 60.064 50.032C60.32 50.256 60.896 50.448 61.792 50.608L63.568 50.896C63.92 50.96 64.096 51.136 64.096 51.424C64.096 51.808 63.856 52 63.376 52H53.632ZM59.68 32.512C59.68 34.272 60.752 35.152 62.896 35.152C64.976 35.152 66.608 34.416 67.792 32.944C69.008 31.472 69.616 29.456 69.616 26.896C69.616 24.272 69.008 22.24 67.792 20.8C66.576 19.36 64.848 18.64 62.608 18.64C60.656 18.64 59.68 19.28 59.68 20.56V32.512ZM72.1514 52C71.6714 52 71.4314 51.824 71.4314 51.472C71.4314 51.184 71.6394 50.992 72.0554 50.896L73.1594 50.704C73.8314 50.576 74.2634 50.4 74.4554 50.176C74.6794 49.952 74.7914 49.504 74.7914 48.832V20.608C74.7914 19.936 74.6794 19.488 74.4554 19.264C74.2634 19.04 73.8314 18.864 73.1594 18.736L72.0554 18.544C71.6394 18.448 71.4314 18.256 71.4314 17.968C71.4314 17.616 71.6714 17.44 72.1514 17.44H80.8394C81.3194 17.44 81.5594 17.616 81.5594 17.968C81.5594 18.256 81.3514 18.448 80.9354 18.544L79.8314 18.736C79.1594 18.864 78.7114 19.04 78.4874 19.264C78.2954 19.488 78.1994 19.936 78.1994 20.608V48.832C78.1994 49.504 78.2954 49.952 78.4874 50.176C78.7114 50.4 79.1594 50.576 79.8314 50.704L80.9354 50.896C81.3514 50.992 81.5594 51.184 81.5594 51.472C81.5594 51.824 81.3194 52 80.8394 52H72.1514ZM91.1125 52.432C89.5765 52.432 88.1365 51.984 86.7925 51.088C85.4485 50.16 84.2645 48.896 83.2405 47.296C82.2485 45.696 81.4645 43.824 80.8885 41.68C80.3445 39.504 80.0725 37.168 80.0725 34.672C80.0725 32.176 80.3445 29.856 80.8885 27.712C81.4645 25.568 82.2485 23.696 83.2405 22.096C84.2645 20.464 85.4485 19.2 86.7925 18.304C88.1365 17.408 89.5765 16.96 91.1125 16.96C92.6485 16.96 94.0725 17.408 95.3845 18.304C96.7285 19.2 97.9125 20.464 98.9365 22.096C99.9605 23.696 100.745 25.568 101.289 27.712C101.865 29.856 102.153 32.176 102.153 34.672C102.153 37.168 101.865 39.504 101.289 41.68C100.745 43.824 99.9605 45.696 98.9365 47.296C97.9125 48.896 96.7285 50.16 95.3845 51.088C94.0725 51.984 92.6485 52.432 91.1125 52.432ZM91.1125 51.136C93.3845 51.136 95.1605 49.776 96.4405 47.056C97.7205 44.336 98.3605 40.208 98.3605 34.672C98.3605 29.136 97.7205 25.024 96.4405 22.336C95.1605 19.616 93.3845 18.256 91.1125 18.256C88.8725 18.256 87.0965 19.616 85.7845 22.336C84.5045 25.024 83.8645 29.136 83.8645 34.672C83.8645 40.208 84.5045 44.336 85.7845 47.056C87.0965 49.776 88.8725 51.136 91.1125 51.136ZM120.451 52.432C119.939 52.432 119.507 52.048 119.155 51.28L106.147 23.056C106.051 22.832 105.923 22.736 105.763 22.768C105.635 22.8 105.571 22.944 105.571 23.2V47.872C105.571 48.768 105.715 49.456 106.003 49.936C106.323 50.384 106.883 50.672 107.683 50.8L108.307 50.896C108.723 50.928 108.931 51.12 108.931 51.472C108.931 51.824 108.691 52 108.211 52H101.347C100.867 52 100.627 51.824 100.627 51.472C100.627 51.12 100.835 50.928 101.251 50.896L101.875 50.8C102.707 50.672 103.283 50.384 103.603 49.936C103.923 49.456 104.083 48.768 104.083 47.872V20.608C104.083 19.936 103.971 19.488 103.747 19.264C103.555 19.04 103.091 18.864 102.355 18.736L101.251 18.544C100.835 18.448 100.627 18.256 100.627 17.968C100.627 17.616 100.867 17.44 101.347 17.44H106.483C107.283 17.44 107.843 17.792 108.163 18.496L119.491 43.408C119.587 43.6 119.699 43.68 119.827 43.648C119.987 43.616 120.067 43.504 120.067 43.312V21.568C120.067 20.544 119.891 19.84 119.539 19.456C119.187 19.04 118.739 18.784 118.195 18.688L117.331 18.544C116.915 18.448 116.707 18.256 116.707 17.968C116.707 17.616 116.947 17.44 117.427 17.44H124.291C124.771 17.44 125.011 17.616 125.011 17.968C125.011 18.32 124.803 18.512 124.387 18.544L123.763 18.64C122.931 18.768 122.355 19.04 122.035 19.456C121.715 19.84 121.555 20.544 121.555 21.568V50.896C121.555 51.472 121.443 51.872 121.219 52.096C121.027 52.32 120.771 52.432 120.451 52.432ZM130.769 52C130.289 52 130.049 51.824 130.049 51.472C130.049 51.184 130.257 50.992 130.673 50.896L131.777 50.704C132.449 50.576 132.881 50.4 133.073 50.176C133.297 49.952 133.409 49.504 133.409 48.832V20.608C133.409 19.936 133.297 19.488 133.073 19.264C132.881 19.04 132.449 18.864 131.777 18.736L130.673 18.544C130.257 18.448 130.049 18.256 130.049 17.968C130.049 17.616 130.289 17.44 130.769 17.44H140.513C142.113 17.44 143.537 17.776 144.785 18.448C146.033 19.12 147.009 20.032 147.713 21.184C148.449 22.336 148.817 23.648 148.817 25.12C148.817 26.56 148.385 27.904 147.521 29.152C146.689 30.368 145.473 31.392 143.873 32.224C143.681 32.32 143.585 32.448 143.585 32.608C143.585 32.768 143.697 32.88 143.921 32.944C146.097 33.68 147.777 34.864 148.961 36.496C150.145 38.096 150.737 40 150.737 42.208C150.737 44.096 150.305 45.792 149.441 47.296C148.577 48.768 147.377 49.92 145.841 50.752C144.337 51.584 142.625 52 140.705 52H130.769ZM139.361 32.272C141.057 32.272 142.465 31.616 143.585 30.304C144.737 28.96 145.313 27.296 145.313 25.312C145.313 23.328 144.769 21.728 143.681 20.512C142.593 19.264 141.153 18.64 139.361 18.64C137.665 18.64 136.817 19.28 136.817 20.56V29.632C136.817 30.56 137.009 31.232 137.393 31.648C137.809 32.064 138.465 32.272 139.361 32.272ZM140.081 50.8C142.161 50.8 143.857 50.016 145.169 48.448C146.481 46.848 147.137 44.72 147.137 42.064C147.137 39.408 146.465 37.312 145.121 35.776C143.809 34.24 142.033 33.472 139.793 33.472C137.809 33.472 136.817 34.256 136.817 35.824V47.488C136.817 49.696 137.905 50.8 140.081 50.8ZM148.996 52C148.516 52 148.276 51.824 148.276 51.472C148.276 51.184 148.484 50.992 148.9 50.896L150.004 50.704C150.676 50.576 151.108 50.4 151.3 50.176C151.524 49.952 151.636 49.504 151.636 48.832V20.608C151.636 19.936 151.524 19.488 151.3 19.264C151.108 19.04 150.676 18.864 150.004 18.736L148.9 18.544C148.484 18.448 148.276 18.256 148.276 17.968C148.276 17.616 148.516 17.44 148.996 17.44H157.78C158.26 17.44 158.5 17.632 158.5 18.016C158.5 18.304 158.324 18.48 157.972 18.544L156.676 18.736C156.004 18.832 155.556 19.008 155.332 19.264C155.14 19.52 155.044 19.984 155.044 20.656V47.536C155.044 48.688 155.364 49.52 156.004 50.032C156.676 50.544 157.508 50.8 158.5 50.8C159.236 50.8 159.988 50.656 160.756 50.368C161.556 50.048 162.276 49.472 162.916 48.64C163.556 47.776 164.036 46.528 164.356 44.896L164.98 41.68C165.076 41.264 165.316 41.056 165.7 41.056C166.148 41.056 166.34 41.328 166.276 41.872L165.7 50.896C165.636 51.632 165.236 52 164.5 52H148.996ZM166.569 52C166.089 52 165.849 51.84 165.849 51.52C165.849 51.2 166.073 50.992 166.521 50.896L167.241 50.752C167.881 50.624 168.361 50.32 168.681 49.84C169.001 49.328 169.273 48.624 169.497 47.728L176.937 17.728C177.001 17.408 177.097 17.2 177.225 17.104C177.385 17.008 177.529 16.96 177.657 16.96C177.817 16.96 177.961 17.008 178.089 17.104C178.249 17.2 178.361 17.408 178.425 17.728L186.009 48.16C186.233 49.056 186.489 49.68 186.777 50.032C187.065 50.384 187.513 50.624 188.121 50.752L188.841 50.896C189.289 50.992 189.513 51.2 189.513 51.52C189.513 51.84 189.273 52 188.793 52H180.585C180.137 52 179.913 51.824 179.913 51.472C179.913 51.12 180.185 50.928 180.729 50.896L181.641 50.8C182.185 50.736 182.521 50.56 182.649 50.272C182.809 49.984 182.809 49.488 182.649 48.784L180.825 41.344C180.633 40.512 180.105 40.096 179.241 40.096H174.201C173.369 40.096 172.841 40.512 172.617 41.344L170.985 47.776C170.505 49.6 170.985 50.608 172.425 50.8L173.145 50.896C173.689 50.992 173.961 51.184 173.961 51.472C173.961 51.824 173.737 52 173.289 52H166.569ZM174.057 38.656H179.337C179.849 38.656 180.057 38.384 179.961 37.84L176.889 24.976H176.649L173.433 37.84C173.337 38.384 173.545 38.656 174.057 38.656ZM209.733 52.432C209.221 52.432 208.789 52.048 208.437 51.28L195.429 23.056C195.333 22.832 195.205 22.736 195.045 22.768C194.917 22.8 194.853 22.944 194.853 23.2V47.872C194.853 48.768 194.997 49.456 195.285 49.936C195.605 50.384 196.165 50.672 196.965 50.8L197.589 50.896C198.005 50.928 198.213 51.12 198.213 51.472C198.213 51.824 197.973 52 197.493 52H190.629C190.149 52 189.909 51.824 189.909 51.472C189.909 51.12 190.117 50.928 190.533 50.896L191.157 50.8C191.989 50.672 192.565 50.384 192.885 49.936C193.205 49.456 193.365 48.768 193.365 47.872V20.608C193.365 19.936 193.253 19.488 193.029 19.264C192.837 19.04 192.373 18.864 191.637 18.736L190.533 18.544C190.117 18.448 189.909 18.256 189.909 17.968C189.909 17.616 190.149 17.44 190.629 17.44H195.765C196.565 17.44 197.125 17.792 197.445 18.496L208.773 43.408C208.869 43.6 208.981 43.68 209.109 43.648C209.269 43.616 209.349 43.504 209.349 43.312V21.568C209.349 20.544 209.173 19.84 208.821 19.456C208.469 19.04 208.021 18.784 207.477 18.688L206.613 18.544C206.197 18.448 205.989 18.256 205.989 17.968C205.989 17.616 206.229 17.44 206.709 17.44H213.573C214.053 17.44 214.293 17.616 214.293 17.968C214.293 18.32 214.085 18.512 213.669 18.544L213.045 18.64C212.213 18.768 211.637 19.04 211.317 19.456C210.997 19.84 210.837 20.544 210.837 21.568V50.896C210.837 51.472 210.725 51.872 210.501 52.096C210.309 52.32 210.053 52.432 209.733 52.432ZM223.909 52.432C221.541 52.432 219.461 51.696 217.669 50.224C215.909 48.752 214.533 46.688 213.541 44.032C212.581 41.344 212.101 38.176 212.101 34.528C212.101 31.008 212.629 27.936 213.685 25.312C214.773 22.656 216.213 20.608 218.005 19.168C219.829 17.696 221.845 16.96 224.053 16.96C225.365 16.96 226.517 17.088 227.509 17.344C228.501 17.568 229.381 17.872 230.149 18.256C230.533 18.48 230.725 18.816 230.725 19.264L230.869 26.56C230.869 27.104 230.677 27.376 230.293 27.376C229.941 27.376 229.717 27.168 229.621 26.752L229.141 24.976C228.469 22.48 227.685 20.752 226.789 19.792C225.925 18.832 224.885 18.352 223.669 18.352C221.429 18.352 219.557 19.744 218.053 22.528C216.581 25.28 215.845 29.28 215.845 34.528C215.845 38.112 216.213 41.136 216.949 43.6C217.717 46.064 218.693 47.92 219.877 49.168C221.093 50.416 222.373 51.04 223.717 51.04C225.157 51.04 226.309 50.592 227.173 49.696C228.069 48.8 228.821 47.072 229.429 44.512L230.005 42.16C230.101 41.68 230.357 41.472 230.773 41.536C231.125 41.6 231.301 41.872 231.301 42.352L231.109 50.128C231.109 50.576 230.901 50.912 230.485 51.136C229.717 51.52 228.805 51.824 227.749 52.048C226.725 52.304 225.445 52.432 223.909 52.432Z" fill="white"/>
<path d="M14.8467 50.499L29.9223 14.2932L34.1423 53.2846L14.8467 50.499Z" fill="white" stroke="black"/>
<circle cx="29.6382" cy="16.2612" r="12.5" transform="rotate(8.2145 29.6382 16.2612)" fill="white" stroke="black"/>
<rect x="3.85805" y="44.3661" width="42" height="11" rx="4.5" transform="rotate(8.2145 3.85805 44.3661)" fill="white" stroke="black"/>
</svg>
