<svg width="275" height="69" viewBox="0 0 275 69" fill="none" xmlns="http://www.w3.org/2000/svg">
<path d="M54.1601 50.7488V17.1488H64.2641C66.0401 17.1488 67.6401 17.5728 69.0641 18.4208C70.4881 19.2688 71.6161 20.4288 72.4481 21.9008C73.2961 23.3568 73.7201 24.9968 73.7201 26.8208C73.7201 28.6608 73.2881 30.3168 72.4241 31.7888C71.5761 33.2448 70.4321 34.3968 68.9921 35.2448C67.5681 36.0768 65.9921 36.4928 64.2641 36.4928H56.2241V50.7488H54.1601ZM56.2241 34.4288H64.1681C65.5441 34.4288 66.8001 34.1008 67.9361 33.4448C69.0721 32.7728 69.9761 31.8608 70.6481 30.7088C71.3201 29.5408 71.6561 28.2288 71.6561 26.7728C71.6561 25.3008 71.3201 23.9888 70.6481 22.8368C69.9761 21.6688 69.0721 20.7568 67.9361 20.1008C66.8001 19.4288 65.5441 19.0928 64.1681 19.0928H56.2241V34.4288ZM75.7901 50.7488V17.1488H77.8541V50.7488H75.7901ZM96.1113 51.3728C93.8393 51.3728 91.7033 50.9248 89.7033 50.0288C87.7033 49.1168 85.9433 47.8608 84.4233 46.2608C82.9033 44.6608 81.7113 42.8128 80.8473 40.7168C79.9833 38.6048 79.5513 36.3488 79.5513 33.9488C79.5513 31.5488 79.9833 29.3008 80.8473 27.2048C81.7113 25.0928 82.9033 23.2368 84.4233 21.6368C85.9433 20.0368 87.7033 18.7888 89.7033 17.8928C91.7033 16.9808 93.8393 16.5248 96.1113 16.5248C98.3993 16.5248 100.543 16.9808 102.543 17.8928C104.543 18.7888 106.303 20.0368 107.823 21.6368C109.343 23.2368 110.527 25.0928 111.375 27.2048C112.239 29.3008 112.671 31.5488 112.671 33.9488C112.671 36.3488 112.239 38.6048 111.375 40.7168C110.527 42.8128 109.343 44.6608 107.823 46.2608C106.303 47.8608 104.543 49.1168 102.543 50.0288C100.543 50.9248 98.3993 51.3728 96.1113 51.3728ZM96.1113 49.3088C98.1273 49.3088 100.015 48.9008 101.775 48.0848C103.535 47.2688 105.071 46.1568 106.383 44.7488C107.711 43.3248 108.743 41.6928 109.479 39.8528C110.231 37.9968 110.607 36.0288 110.607 33.9488C110.607 31.8528 110.231 29.8768 109.479 28.0208C108.727 26.1648 107.687 24.5328 106.359 23.1248C105.031 21.7008 103.487 20.5888 101.727 19.7888C99.9833 18.9888 98.1113 18.5888 96.1113 18.5888C94.0953 18.5888 92.2073 18.9968 90.4473 19.8128C88.6873 20.6288 87.1433 21.7488 85.8153 23.1728C84.5033 24.5808 83.4713 26.2128 82.7193 28.0688C81.9833 29.9088 81.6153 31.8688 81.6153 33.9488C81.6153 36.0608 81.9913 38.0448 82.7433 39.9008C83.4953 41.7408 84.5353 43.3728 85.8633 44.7968C87.1913 46.2048 88.7273 47.3088 90.4713 48.1088C92.2313 48.9088 94.1113 49.3088 96.1113 49.3088ZM113.984 50.7488V17.1488H116.24L135.8 47.0288V17.1488H137.864V50.7488H135.656L116.048 20.8688V50.7488H113.984ZM147.46 50.7488V17.1488H158.332C159.9 17.1488 161.324 17.4688 162.604 18.1088C163.9 18.7328 164.932 19.6608 165.7 20.8928C166.468 22.1248 166.852 23.6288 166.852 25.4048C166.852 26.5408 166.636 27.5968 166.204 28.5728C165.772 29.5488 165.228 30.3568 164.572 30.9968C163.932 31.6368 163.292 32.0208 162.652 32.1488C163.628 32.4208 164.484 32.8608 165.22 33.4688C165.972 34.0768 166.604 34.7968 167.116 35.6288C167.644 36.4608 168.036 37.3488 168.292 38.2928C168.564 39.2368 168.7 40.1888 168.7 41.1488C168.7 43.1168 168.3 44.8208 167.5 46.2608C166.7 47.6848 165.636 48.7888 164.308 49.5728C162.98 50.3568 161.508 50.7488 159.892 50.7488H147.46ZM149.524 48.8048H159.82C161.084 48.8048 162.236 48.4688 163.276 47.7968C164.332 47.1088 165.172 46.1808 165.796 45.0128C166.42 43.8288 166.732 42.4848 166.732 40.9808C166.732 39.6528 166.42 38.4048 165.796 37.2368C165.172 36.0528 164.332 35.1008 163.276 34.3808C162.236 33.6448 161.084 33.2768 159.82 33.2768H149.524V48.8048ZM149.524 31.3568H158.26C160.052 31.3568 161.588 30.8448 162.868 29.8208C164.148 28.7968 164.788 27.3248 164.788 25.4048C164.788 23.2608 164.148 21.6768 162.868 20.6528C161.588 19.6128 160.052 19.0928 158.26 19.0928H149.524V31.3568ZM169.542 50.7488V17.1488H171.606V48.6848H187.806V50.7488H169.542ZM200.676 17.1488H203.508L215.748 50.7488H213.564L210.708 42.9008H193.5L190.644 50.7488H188.436L200.676 17.1488ZM194.244 40.8368H209.94L202.092 19.3088L194.244 40.8368ZM216.588 50.7488V17.1488H218.844L238.404 47.0288V17.1488H240.468V50.7488H238.26L218.652 20.8688V50.7488H216.588ZM257.925 51.3728C255.653 51.3728 253.517 50.9248 251.517 50.0288C249.517 49.1168 247.757 47.8688 246.237 46.2848C244.733 44.6848 243.549 42.8368 242.685 40.7408C241.837 38.6288 241.413 36.3648 241.413 33.9488C241.413 31.5488 241.837 29.3008 242.685 27.2048C243.549 25.0928 244.733 23.2368 246.237 21.6368C247.757 20.0368 249.517 18.7888 251.517 17.8928C253.517 16.9808 255.653 16.5248 257.925 16.5248C260.645 16.5248 263.149 17.1568 265.437 18.4208C267.725 19.6848 269.621 21.3728 271.125 23.4848L269.325 24.4448C268.013 22.6528 266.341 21.2288 264.309 20.1728C262.277 19.1168 260.149 18.5888 257.925 18.5888C255.909 18.5888 254.021 18.9968 252.261 19.8128C250.517 20.6288 248.981 21.7488 247.653 23.1728C246.341 24.5808 245.317 26.2128 244.581 28.0688C243.845 29.9248 243.477 31.8848 243.477 33.9488C243.477 36.0608 243.853 38.0448 244.605 39.9008C245.357 41.7568 246.397 43.3968 247.725 44.8208C249.053 46.2288 250.589 47.3328 252.333 48.1328C254.077 48.9168 255.941 49.3088 257.925 49.3088C260.261 49.3088 262.429 48.7728 264.429 47.7008C266.429 46.6128 268.061 45.2048 269.325 43.4768L271.125 44.4608C269.621 46.5728 267.725 48.2528 265.437 49.5008C263.149 50.7488 260.645 51.3728 257.925 51.3728Z" fill="white"/>
<path d="M14.1268 50.2478L29.2023 14.042L33.4224 53.0333L14.1268 50.2478Z" fill="white" stroke="black"/>
<circle cx="28.9182" cy="16.0099" r="12.5" transform="rotate(8.2145 28.9182 16.0099)" fill="white" stroke="black"/>
<rect x="3.13815" y="44.1149" width="42" height="11" rx="4.5" transform="rotate(8.2145 3.13815 44.1149)" fill="white" stroke="black"/>
</svg>
