<svg width="454" height="69" viewBox="0 0 454 69" fill="none" xmlns="http://www.w3.org/2000/svg">
<path d="M88.0994 51.4094C87.6194 51.4094 87.3794 51.2334 87.3794 50.8814C87.3794 50.5934 87.5874 50.4014 88.0034 50.3054L89.1074 50.1134C89.7794 49.9854 90.2114 49.8094 90.4034 49.5854C90.6274 49.3614 90.7394 48.9134 90.7394 48.2414V20.0174C90.7394 19.3454 90.6274 18.8974 90.4034 18.6734C90.2114 18.4494 89.7794 18.2734 89.1074 18.1454L88.0034 17.9534C87.5874 17.8574 87.3794 17.6654 87.3794 17.3774C87.3794 17.0254 87.6194 16.8494 88.0994 16.8494H98.1314C100.019 16.8494 101.683 17.2654 103.123 18.0974C104.563 18.8974 105.683 20.0174 106.483 21.4574C107.283 22.8974 107.683 24.5614 107.683 26.4494C107.683 28.2734 107.283 29.8894 106.483 31.2974C105.683 32.7054 104.579 33.8094 103.171 34.6094C101.763 35.3774 100.131 35.7614 98.2754 35.7614H94.8194C94.3714 35.7614 94.1474 35.9854 94.1474 36.4334V48.0494C94.1474 48.7214 94.2754 49.1854 94.5314 49.4414C94.7874 49.6654 95.3634 49.8574 96.2594 50.0174L98.0354 50.3054C98.3874 50.3694 98.5634 50.5454 98.5634 50.8334C98.5634 51.2174 98.3234 51.4094 97.8434 51.4094H88.0994ZM94.1474 31.9214C94.1474 33.6814 95.2194 34.5614 97.3634 34.5614C99.4434 34.5614 101.075 33.8254 102.259 32.3534C103.475 30.8814 104.083 28.8654 104.083 26.3054C104.083 23.6814 103.475 21.6494 102.259 20.2094C101.043 18.7694 99.3154 18.0494 97.0754 18.0494C95.1234 18.0494 94.1474 18.6894 94.1474 19.9694V31.9214ZM128.219 51.4094C127.739 51.4094 127.499 51.2334 127.499 50.8814C127.499 50.5934 127.707 50.4014 128.123 50.3054L129.227 50.1134C129.899 49.9854 130.331 49.8094 130.523 49.5854C130.747 49.3614 130.859 48.9134 130.859 48.2414V20.0174C130.859 19.3454 130.747 18.8974 130.523 18.6734C130.331 18.4494 129.899 18.2734 129.227 18.1454L128.123 17.9534C127.707 17.8574 127.499 17.6654 127.499 17.3774C127.499 17.0254 127.739 16.8494 128.219 16.8494H136.907C137.387 16.8494 137.627 17.0254 137.627 17.3774C137.627 17.6654 137.419 17.8574 137.003 17.9534L135.899 18.1454C135.227 18.2734 134.779 18.4494 134.555 18.6734C134.363 18.8974 134.267 19.3454 134.267 20.0174V48.2414C134.267 48.9134 134.363 49.3614 134.555 49.5854C134.779 49.8094 135.227 49.9854 135.899 50.1134L137.003 50.3054C137.419 50.4014 137.627 50.5934 137.627 50.8814C137.627 51.2334 137.387 51.4094 136.907 51.4094H128.219ZM169.26 51.8414C167.724 51.8414 166.284 51.3934 164.94 50.4974C163.596 49.5694 162.412 48.3054 161.388 46.7054C160.396 45.1054 159.612 43.2334 159.036 41.0894C158.492 38.9134 158.22 36.5774 158.22 34.0814C158.22 31.5854 158.492 29.2654 159.036 27.1214C159.612 24.9774 160.396 23.1054 161.388 21.5054C162.412 19.8734 163.596 18.6094 164.94 17.7134C166.284 16.8174 167.724 16.3694 169.26 16.3694C170.796 16.3694 172.22 16.8174 173.532 17.7134C174.876 18.6094 176.06 19.8734 177.084 21.5054C178.108 23.1054 178.892 24.9774 179.436 27.1214C180.012 29.2654 180.3 31.5854 180.3 34.0814C180.3 36.5774 180.012 38.9134 179.436 41.0894C178.892 43.2334 178.108 45.1054 177.084 46.7054C176.06 48.3054 174.876 49.5694 173.532 50.4974C172.22 51.3934 170.796 51.8414 169.26 51.8414ZM169.26 50.5454C171.532 50.5454 173.308 49.1854 174.588 46.4654C175.868 43.7454 176.508 39.6174 176.508 34.0814C176.508 28.5454 175.868 24.4334 174.588 21.7454C173.308 19.0254 171.532 17.6654 169.26 17.6654C167.02 17.6654 165.244 19.0254 163.932 21.7454C162.652 24.4334 162.012 28.5454 162.012 34.0814C162.012 39.6174 162.652 43.7454 163.932 46.4654C165.244 49.1854 167.02 50.5454 169.26 50.5454ZM220.199 51.8414C219.687 51.8414 219.255 51.4574 218.903 50.6894L205.895 22.4654C205.799 22.2414 205.671 22.1454 205.511 22.1774C205.383 22.2094 205.319 22.3534 205.319 22.6094V47.2814C205.319 48.1774 205.463 48.8654 205.751 49.3454C206.071 49.7934 206.631 50.0814 207.431 50.2094L208.055 50.3054C208.471 50.3374 208.679 50.5294 208.679 50.8814C208.679 51.2334 208.439 51.4094 207.959 51.4094H201.095C200.615 51.4094 200.375 51.2334 200.375 50.8814C200.375 50.5294 200.583 50.3374 200.999 50.3054L201.623 50.2094C202.455 50.0814 203.031 49.7934 203.351 49.3454C203.671 48.8654 203.831 48.1774 203.831 47.2814V20.0174C203.831 19.3454 203.719 18.8974 203.495 18.6734C203.303 18.4494 202.839 18.2734 202.103 18.1454L200.999 17.9534C200.583 17.8574 200.375 17.6654 200.375 17.3774C200.375 17.0254 200.615 16.8494 201.095 16.8494H206.231C207.031 16.8494 207.591 17.2014 207.911 17.9054L219.239 42.8174C219.335 43.0094 219.447 43.0894 219.575 43.0574C219.735 43.0254 219.815 42.9134 219.815 42.7214V20.9774C219.815 19.9534 219.639 19.2494 219.287 18.8654C218.935 18.4494 218.487 18.1934 217.943 18.0974L217.079 17.9534C216.663 17.8574 216.455 17.6654 216.455 17.3774C216.455 17.0254 216.695 16.8494 217.175 16.8494H224.039C224.519 16.8494 224.759 17.0254 224.759 17.3774C224.759 17.7294 224.551 17.9214 224.135 17.9534L223.511 18.0494C222.679 18.1774 222.103 18.4494 221.783 18.8654C221.463 19.2494 221.303 19.9534 221.303 20.9774V50.3054C221.303 50.8814 221.191 51.2814 220.967 51.5054C220.775 51.7294 220.519 51.8414 220.199 51.8414ZM270.837 51.4094C270.357 51.4094 270.117 51.2334 270.117 50.8814C270.117 50.5934 270.325 50.4014 270.741 50.3054L271.845 50.1134C272.517 49.9854 272.949 49.8094 273.141 49.5854C273.365 49.3614 273.477 48.9134 273.477 48.2414V20.0174C273.477 19.3454 273.365 18.8974 273.141 18.6734C272.949 18.4494 272.517 18.2734 271.845 18.1454L270.741 17.9534C270.325 17.8574 270.117 17.6654 270.117 17.3774C270.117 17.0254 270.357 16.8494 270.837 16.8494H280.581C282.181 16.8494 283.605 17.1854 284.853 17.8574C286.101 18.5294 287.077 19.4414 287.781 20.5934C288.517 21.7454 288.885 23.0574 288.885 24.5294C288.885 25.9694 288.453 27.3134 287.589 28.5614C286.757 29.7774 285.541 30.8014 283.941 31.6334C283.749 31.7294 283.653 31.8574 283.653 32.0174C283.653 32.1774 283.765 32.2894 283.989 32.3534C286.165 33.0894 287.845 34.2734 289.029 35.9054C290.213 37.5054 290.805 39.4094 290.805 41.6174C290.805 43.5054 290.373 45.2014 289.509 46.7054C288.645 48.1774 287.445 49.3294 285.909 50.1614C284.405 50.9934 282.693 51.4094 280.773 51.4094H270.837ZM279.429 31.6814C281.125 31.6814 282.533 31.0254 283.653 29.7134C284.805 28.3694 285.381 26.7054 285.381 24.7214C285.381 22.7374 284.837 21.1374 283.749 19.9214C282.661 18.6734 281.221 18.0494 279.429 18.0494C277.733 18.0494 276.885 18.6894 276.885 19.9694V29.0414C276.885 29.9694 277.077 30.6414 277.461 31.0574C277.877 31.4734 278.533 31.6814 279.429 31.6814ZM280.149 50.2094C282.229 50.2094 283.925 49.4254 285.237 47.8574C286.549 46.2574 287.205 44.1294 287.205 41.4734C287.205 38.8174 286.533 36.7214 285.189 35.1854C283.877 33.6494 282.101 32.8814 279.861 32.8814C277.877 32.8814 276.885 33.6654 276.885 35.2334V46.8974C276.885 49.1054 277.973 50.2094 280.149 50.2094ZM311.144 51.4094C310.664 51.4094 310.424 51.2334 310.424 50.8814C310.424 50.5934 310.632 50.4014 311.048 50.3054L312.152 50.1134C312.824 49.9854 313.256 49.8094 313.448 49.5854C313.672 49.3614 313.784 48.9134 313.784 48.2414V20.0174C313.784 19.3454 313.672 18.8974 313.448 18.6734C313.256 18.4494 312.824 18.2734 312.152 18.1454L311.048 17.9534C310.632 17.8574 310.424 17.6654 310.424 17.3774C310.424 17.0254 310.664 16.8494 311.144 16.8494H319.928C320.408 16.8494 320.648 17.0414 320.648 17.4254C320.648 17.7134 320.472 17.8894 320.12 17.9534L318.824 18.1454C318.152 18.2414 317.704 18.4174 317.48 18.6734C317.288 18.9294 317.192 19.3934 317.192 20.0654V46.9454C317.192 48.0974 317.512 48.9294 318.152 49.4414C318.824 49.9534 319.656 50.2094 320.648 50.2094C321.384 50.2094 322.136 50.0654 322.904 49.7774C323.704 49.4574 324.424 48.8814 325.064 48.0494C325.704 47.1854 326.184 45.9374 326.504 44.3054L327.128 41.0894C327.224 40.6734 327.464 40.4654 327.848 40.4654C328.296 40.4654 328.488 40.7374 328.424 41.2814L327.848 50.3054C327.784 51.0414 327.384 51.4094 326.648 51.4094H311.144ZM346.956 51.4094C346.476 51.4094 346.236 51.2494 346.236 50.9294C346.236 50.6094 346.46 50.4014 346.908 50.3054L347.628 50.1614C348.268 50.0334 348.748 49.7294 349.068 49.2494C349.388 48.7374 349.66 48.0334 349.884 47.1374L357.324 17.1374C357.388 16.8174 357.484 16.6094 357.612 16.5134C357.772 16.4174 357.916 16.3694 358.044 16.3694C358.204 16.3694 358.348 16.4174 358.476 16.5134C358.636 16.6094 358.748 16.8174 358.812 17.1374L366.396 47.5694C366.62 48.4654 366.876 49.0894 367.164 49.4414C367.452 49.7934 367.9 50.0334 368.508 50.1614L369.228 50.3054C369.676 50.4014 369.9 50.6094 369.9 50.9294C369.9 51.2494 369.66 51.4094 369.18 51.4094H360.972C360.524 51.4094 360.3 51.2334 360.3 50.8814C360.3 50.5294 360.572 50.3374 361.116 50.3054L362.028 50.2094C362.572 50.1454 362.908 49.9694 363.036 49.6814C363.196 49.3934 363.196 48.8974 363.036 48.1934L361.212 40.7534C361.02 39.9214 360.492 39.5054 359.628 39.5054H354.588C353.756 39.5054 353.228 39.9214 353.004 40.7534L351.372 47.1854C350.892 49.0094 351.372 50.0174 352.812 50.2094L353.532 50.3054C354.076 50.4014 354.348 50.5934 354.348 50.8814C354.348 51.2334 354.124 51.4094 353.676 51.4094H346.956ZM354.444 38.0654H359.724C360.236 38.0654 360.444 37.7934 360.348 37.2494L357.276 24.3854H357.036L353.82 37.2494C353.724 37.7934 353.932 38.0654 354.444 38.0654ZM406.921 51.8414C406.409 51.8414 405.977 51.4574 405.625 50.6894L392.617 22.4654C392.521 22.2414 392.393 22.1454 392.233 22.1774C392.105 22.2094 392.041 22.3534 392.041 22.6094V47.2814C392.041 48.1774 392.185 48.8654 392.473 49.3454C392.793 49.7934 393.353 50.0814 394.153 50.2094L394.777 50.3054C395.193 50.3374 395.401 50.5294 395.401 50.8814C395.401 51.2334 395.161 51.4094 394.681 51.4094H387.817C387.337 51.4094 387.097 51.2334 387.097 50.8814C387.097 50.5294 387.305 50.3374 387.721 50.3054L388.345 50.2094C389.177 50.0814 389.753 49.7934 390.073 49.3454C390.393 48.8654 390.553 48.1774 390.553 47.2814V20.0174C390.553 19.3454 390.441 18.8974 390.217 18.6734C390.025 18.4494 389.561 18.2734 388.825 18.1454L387.721 17.9534C387.305 17.8574 387.097 17.6654 387.097 17.3774C387.097 17.0254 387.337 16.8494 387.817 16.8494H392.953C393.753 16.8494 394.313 17.2014 394.633 17.9054L405.961 42.8174C406.057 43.0094 406.169 43.0894 406.297 43.0574C406.457 43.0254 406.537 42.9134 406.537 42.7214V20.9774C406.537 19.9534 406.361 19.2494 406.009 18.8654C405.657 18.4494 405.209 18.1934 404.665 18.0974L403.801 17.9534C403.385 17.8574 403.177 17.6654 403.177 17.3774C403.177 17.0254 403.417 16.8494 403.897 16.8494H410.761C411.241 16.8494 411.481 17.0254 411.481 17.3774C411.481 17.7294 411.273 17.9214 410.857 17.9534L410.233 18.0494C409.401 18.1774 408.825 18.4494 408.505 18.8654C408.185 19.2494 408.025 19.9534 408.025 20.9774V50.3054C408.025 50.8814 407.913 51.2814 407.689 51.5054C407.497 51.7294 407.241 51.8414 406.921 51.8414ZM443.176 51.8414C440.808 51.8414 438.728 51.1054 436.936 49.6334C435.176 48.1614 433.8 46.0974 432.808 43.4414C431.848 40.7534 431.368 37.5854 431.368 33.9374C431.368 30.4174 431.896 27.3454 432.952 24.7214C434.04 22.0654 435.48 20.0174 437.272 18.5774C439.096 17.1054 441.112 16.3694 443.32 16.3694C444.632 16.3694 445.784 16.4974 446.776 16.7534C447.768 16.9774 448.648 17.2814 449.416 17.6654C449.8 17.8894 449.992 18.2254 449.992 18.6734L450.136 25.9694C450.136 26.5134 449.944 26.7854 449.56 26.7854C449.208 26.7854 448.984 26.5774 448.888 26.1614L448.408 24.3854C447.736 21.8894 446.952 20.1614 446.056 19.2014C445.192 18.2414 444.152 17.7614 442.936 17.7614C440.696 17.7614 438.824 19.1534 437.32 21.9374C435.848 24.6894 435.112 28.6894 435.112 33.9374C435.112 37.5214 435.48 40.5454 436.216 43.0094C436.984 45.4734 437.96 47.3294 439.144 48.5774C440.36 49.8254 441.64 50.4494 442.984 50.4494C444.424 50.4494 445.576 50.0014 446.44 49.1054C447.336 48.2094 448.088 46.4814 448.696 43.9214L449.272 41.5694C449.368 41.0894 449.624 40.8814 450.04 40.9454C450.392 41.0094 450.568 41.2814 450.568 41.7614L450.376 49.5374C450.376 49.9854 450.168 50.3214 449.752 50.5454C448.984 50.9294 448.072 51.2334 447.016 51.4574C445.992 51.7134 444.712 51.8414 443.176 51.8414Z" fill="white"/>
<path d="M14.8467 50.499L29.9223 14.2932L34.1423 53.2846L14.8467 50.499Z" fill="white" stroke="black"/>
<circle cx="29.6382" cy="16.2612" r="12.5" transform="rotate(8.2145 29.6382 16.2612)" fill="white" stroke="black"/>
<rect x="3.85805" y="44.3661" width="42" height="11" rx="4.5" transform="rotate(8.2145 3.85805 44.3661)" fill="white" stroke="black"/>
</svg>
