<svg
  xmlns="http://www.w3.org/2000/svg"
  xmlns:xlink="http://www.w3.org/1999/xlink"
  x="0px"
  y="0px"
  width="112"
  height="27"
  viewBox="0 0 112 27"
  fill="none"
  style="enable-background:new 0 0 112 27;"
  xml:space="preserve"
>
  <g id="Layer_1">
    <path
      fillRule="evenodd"
      clipRule="evenodd"
      d="M72.1501 23.0362C66.7716 23.0362 62.4135 18.8486 62.4135 13.6832C62.4135 8.51775 66.7716 4.33074 72.1501 4.33074C77.5287 4.33074 81.8867 8.51775 81.8867 13.6832C81.8867 18.8486 77.5287 23.0362 72.1501 23.0362ZM72.1503 0.463867C64.5493 0.463867 58.3867 6.38167 58.3867 13.6832C58.3867 20.9859 64.5493 26.9031 72.1503 26.9031C79.7519 26.9031 85.9139 20.9859 85.9139 13.6832C85.9139 6.38167 79.7519 0.463867 72.1503 0.463867Z"
      fill="black"
    />
    <path
      fillRule="evenodd"
      clipRule="evenodd"
      d="M110.023 9.56502C110.023 4.98697 106.165 1.27734 101.405 1.27734H91.8711V26.2399H95.665V17.6613V14.0325V11.9508V5.04362H101.681C104.18 5.04362 106.331 7.0109 106.331 9.52377C106.331 12.0372 104.177 14.0386 101.681 14.0386C101.618 14.0386 98.6914 14.0419 96.7225 14.0397L99.7872 17.6613H99.7994L107.049 26.2399H112L104.387 17.2301C107.677 16.0482 110.023 12.9881 110.023 9.56502Z"
      fill="black"
    />
    <path
      fillRule="evenodd"
      clipRule="evenodd"
      d="M28.6426 3.64188L38.3165 13.3163L41.1278 10.5065L31.4538 0.831055L28.6426 3.64188Z"
      fill="black"
    />
    <path
      fillRule="evenodd"
      clipRule="evenodd"
      d="M51.5363 0.831055L41.8623 10.505L44.6719 13.3163L54.3475 3.64176L51.5363 0.831055Z"
      fill="black"
    />
    <path
      fillRule="evenodd"
      clipRule="evenodd"
      d="M28.6426 23.7239L31.4537 26.536L41.1278 16.8612L38.3161 14.0508L28.6426 23.7239Z"
      fill="black"
    />
    <path
      fillRule="evenodd"
      clipRule="evenodd"
      d="M41.8623 16.8612L51.5363 26.536L54.3475 23.7239L44.6719 14.0508L41.8623 16.8612Z"
      fill="black"
    />
    <path
      fillRule="evenodd"
      clipRule="evenodd"
      d="M12.3019 0.0966797L0 26.1687L4.18513 26.1643L6.9565 20.2721H17.6706L20.4364 26.1687H24.6032L12.3019 0.0966797ZM12.307 8.89771L15.8789 16.4509H8.75452L12.307 8.89771Z"
      fill="black"
    />
  </g>
  <g id="Layer_2" />
</svg>