<svg xmlns="http://www.w3.org/2000/svg" xmlns:xlink="http://www.w3.org/1999/xlink" x="0px" y="0px" viewBox="0 0 523.3 88.7" style="enable-background:new 0 0 523.3 88.7;" xml:space="preserve"><g id="Layer_1">	<g>		<path d="M175.4,18.8V6h-58.6v12.8h21.8v62.6h14.3V18.8H175.4L175.4,18.8z M246.3,18.1V6h-51.6v75.4h51.9v-12H209V48.1h35.4V37.5   H209V18.1H246.3L246.3,18.1z M335.3,6L322,41c-1,2.5-2.2,6-3.5,10.4l-1.7,5.2l-1.6,5.2h-0.5l-1.7-5.2l-1.7-5.2   c-1.5-4.5-2.7-8-3.6-10.4L294.2,6h-23.3v75.4h14.3V40.3c0-3.1-0.1-6.7-0.3-11l-0.3-5.5l-0.3-5.5h0.4l1.7,5.2l1.7,5.2   c1.5,4.6,2.7,8.1,3.6,10.4l16.7,42.2h13l16.6-42.5c0.8-2.2,2-5.7,3.6-10.4l1.7-5.2l1.7-5.2h0.4l-0.3,5.6l-0.3,5.6   c-0.2,4.2-0.3,7.9-0.3,11.2v41.1h14.3V6H335.3L335.3,6z M438.6,81.4h14.9L428,6h-21.5l-25.1,75.4h15.1l4.7-14.5h32.5L438.6,81.4   L438.6,81.4z M404.7,56.4l12.8-39.3l13,39.3H404.7L404.7,56.4z M473.6,6v75.4h49.7V68.6h-35.4V6H473.6L473.6,6z"></path>		<path d="M513.3,14.6h1.7l2.8,4.1h1.3l-2.8-4.1c1.3-0.2,2.3-0.9,2.3-2.7c0-1.7-0.8-2.6-2.9-2.6h-3.6v9.3h1.2V14.6L513.3,14.6z    M513.3,10.4h2.1c1,0,2.1,0.3,2.1,1.5c0,1.5-1.4,1.6-2.7,1.6h-1.5V10.4L513.3,10.4z M507,14c0,4.5,3.6,8.1,8.1,8.1   c4.5,0,8.1-3.6,8.1-8.1c0-4.5-3.6-8.1-8.1-8.1C510.6,5.9,507,9.6,507,14L507,14z M508.1,14c0-3.8,3.1-6.9,6.9-6.9   c3.8,0,6.9,3.1,6.9,6.9s-3.1,6.9-6.9,6.9C511.2,21,508.1,17.9,508.1,14L508.1,14z"></path>		<path d="M82.2,0H6.5C3.9,0,0,1.7,0,6.5v75.7c0,2.6,1.7,6.5,6.5,6.5h75.7c2.6,0,6.5-1.7,6.5-6.5V6.5C88.7,3.9,87,0,82.2,0z    M6.5,3.1h75.7c3.2,0,3.4,2.8,3.4,3.4v75.7c0,1.2-0.4,2-0.9,2.5L4,4C4.9,3.2,6.2,3.1,6.5,3.1z"></path>	</g></g><g id="Layer_2"></g></svg>